<?xml version="1.0" encoding="UTF-8"?>
<svg id="Calque_1" xmlns="http://www.w3.org/2000/svg" viewBox="0 0 379.55 428.7">
  <defs>
    <style>
      .cls-1 {
        fill: #1e3c90;
        stroke: #312783;
      }

      .cls-1, .cls-2, .cls-3 {
        stroke-miterlimit: 10;
      }

      .cls-2 {
        fill: #1b1a36;
        stroke: #662483;
      }

      .cls-3 {
        fill: #045861;
        stroke: #008d36;
      }
    </style>
  </defs>
  <polygon class="cls-1" points="4.93 104.09 190.5 0 371.08 105.74 190.32 211.22 150.04 188.57 290.27 106.5 259.05 87.62 118.07 169.69 77.03 145.52 218.27 64.71 186.25 46.08 45.31 127.64 4.93 104.09"/>
  <polygon class="cls-2" points=".02 111.78 0 320.94 184.15 427.6 184.15 218.19 144.59 195.28 144.84 359.67 111.86 339.78 111.86 175.64 72.08 152.99 72.08 317.88 39.61 299.19 39.61 134.8 .02 111.78"/>
  <polygon class="cls-3" points="379.55 111.79 379.55 157.56 234.8 241.14 235.05 277.14 235.05 323.45 194.69 346.82 194.52 217.73 379.55 111.79"/>
  <polygon class="cls-3" points="263.23 261.02 379.55 194.47 379.55 321.7 194.52 428.7 194.52 382.38 339.75 298.84 339.76 262.83 263.17 307.17 263.23 307.13 263.23 261.02"/>
</svg>