{"asset":{"version":"2.0","generator":"THREE.GLTFExporter r175"},"scenes":[{"name":"AuxScene","nodes":[8]}],"scene":0,"nodes":[{"mesh":0},{"mesh":1},{"mesh":2},{"mesh":3},{"matrix":[0.164942099646967,0,-0.16494209964696702,0,0,-0.23326335432703524,0,0,0.16494209964696702,0,0.164942099646967,0,0,0,0,1],"children":[0,1,2,3]},{"children":[4]},{"matrix":[1,0,0,0,0,1,0,0,0,0,1,0,-31.63176978439609,50.002534916580544,30.972001425133488,1],"children":[5]},{"children":[6]},{"children":[7]}],"bufferViews":[{"buffer":0,"byteOffset":0,"byteLength":5040,"target":34962,"byteStride":12},{"buffer":0,"byteOffset":5040,"byteLength":3360,"target":34962,"byteStride":8},{"buffer":0,"byteOffset":8400,"byteLength":5040,"target":34962,"byteStride":12},{"buffer":0,"byteOffset":13440,"byteLength":5040,"target":34962,"byteStride":12},{"buffer":0,"byteOffset":18480,"byteLength":3360,"target":34962,"byteStride":8},{"buffer":0,"byteOffset":21840,"byteLength":5040,"target":34962,"byteStride":12},{"buffer":0,"byteOffset":26880,"byteLength":2880,"target":34962,"byteStride":12},{"buffer":0,"byteOffset":29760,"byteLength":1920,"target":34962,"byteStride":8},{"buffer":0,"byteOffset":31680,"byteLength":2880,"target":34962,"byteStride":12},{"buffer":0,"byteOffset":34560,"byteLength":3744,"target":34962,"byteStride":12},{"buffer":0,"byteOffset":38304,"byteLength":2496,"target":34962,"byteStride":8},{"buffer":0,"byteOffset":40800,"byteLength":3744,"target":34962,"byteStride":12}],"buffers":[{"byteLength":44544,"uri":"data:application/octet-stream;base64,"}],"accessors":[{"bufferView":0,"componentType":5126,"count":420,"max":[371.64569091796875,211.68096923828125,15.600000381469727],"min":[4.364334583282471,-0.4610273241996765,-0.6000000238418579],"type":"VEC3"},{"bufferView":1,"componentType":5126,"count":420,"max":[371.64569091796875,211.22000122070312],"min":[4.364334583282471,-14.600000381469727],"type":"VEC2"},{"bufferView":2,"componentType":5126,"count":420,"max":[0.5057730078697205,0.8704046010971069,1],"min":[-0.5148226022720337,-0.8718904852867126,-1],"type":"VEC3"},{"bufferView":3,"componentType":5126,"count":420,"max":[184.5500030517578,428.090087890625,15.600000381469727],"min":[-0.40002205967903137,111.28965759277344,-0.6000000238418579],"type":"VEC3"},{"bufferView":4,"componentType":5126,"count":420,"max":[428.090087890625,427.6000061035156],"min":[-0.40002205967903137,-14.600000381469727],"type":"VEC2"},{"bufferView":5,"componentType":5126,"count":420,"max":[1,0.8656065464019775,1],"min":[-1,-0.8702366948127747,-1],"type":"VEC3"},{"bufferView":6,"componentType":5126,"count":240,"max":[379.95001220703125,347.3102722167969,15.600000381469727],"min":[194.11968994140625,111.30061340332031,-0.6000000238418579],"type":"VEC3"},{"bufferView":7,"componentType":5126,"count":240,"max":[379.95001220703125,346.82000732421875],"min":[111.30061340332031,-14.600000381469727],"type":"VEC2"},{"bufferView":8,"componentType":5126,"count":240,"max":[1,0.8666287660598755,1],"min":[-0.9999975562095642,-0.868091344833374,-1],"type":"VEC3"},{"bufferView":9,"componentType":5126,"count":312,"max":[379.95001220703125,429.19000244140625,15.600000381469727],"min":[194.1199951171875,193.98065185546875,-0.6000000238418579],"type":"VEC3"},{"bufferView":10,"componentType":5126,"count":312,"max":[429.19000244140625,428.70001220703125],"min":[193.98065185546875,-14.600000381469727],"type":"VEC2"},{"bufferView":11,"componentType":5126,"count":312,"max":[0.9999995827674866,0.8669270277023315,1],"min":[-1,-0.8684092164039612,-1],"type":"VEC3"}],"materials":[{"pbrMetallicRoughness":{"baseColorFactor":[0.6375968739867731,0.6653872982754769,0.7083757798856457,1],"metallicFactor":1,"roughnessFactor":0.2},"doubleSided":true,"extensions":{"KHR_materials_clearcoat":{"clearcoatFactor":0.1,"clearcoatRoughnessFactor":0}}}],"meshes":[{"primitives":[{"mode":4,"attributes":{"POSITION":0,"TEXCOORD_0":1,"NORMAL":2},"material":0}]},{"primitives":[{"mode":4,"attributes":{"POSITION":3,"TEXCOORD_0":4,"NORMAL":5},"material":0}]},{"primitives":[{"mode":4,"attributes":{"POSITION":6,"TEXCOORD_0":7,"NORMAL":8},"material":0}]},{"primitives":[{"mode":4,"attributes":{"POSITION":9,"TEXCOORD_0":10,"NORMAL":11},"material":0}]}],"extensionsUsed":["KHR_materials_clearcoat"]}